<svg width="300" height="300" viewBox="0 0 300 300" fill="none" xmlns="http://www.w3.org/2000/svg">
<path d="M143.75 165.625C129.534 165.625 115.638 161.41 103.818 153.512C91.9986 145.614 82.7862 134.389 77.3462 121.255C71.9061 108.122 70.4828 93.6703 73.2561 79.7279C76.0294 65.7855 82.8748 52.9786 92.9267 42.9267C102.979 32.8748 115.786 26.0294 129.728 23.2561C143.67 20.4828 158.122 21.9061 171.255 27.3462C184.389 32.7862 195.614 41.9986 203.512 53.8184C211.41 65.6382 215.625 79.5345 215.625 93.75C215.592 112.802 208.009 131.065 194.537 144.537C181.065 158.009 162.802 165.592 143.75 165.625ZM143.75 40.625C133.243 40.625 122.972 43.7408 114.235 49.5782C105.499 55.4157 98.6898 63.7126 94.6689 73.42C90.648 83.1273 89.596 93.809 91.6458 104.114C93.6957 114.419 98.7553 123.885 106.185 131.315C113.615 138.745 123.081 143.804 133.386 145.854C143.691 147.904 154.373 146.852 164.08 142.831C173.787 138.81 182.084 132.001 187.922 123.265C193.759 114.528 196.875 104.257 196.875 93.75C196.842 79.6706 191.234 66.1772 181.279 56.2215C171.323 46.2657 157.83 40.658 143.75 40.625Z" fill="#091210"/>
<path d="M31.25 265.625C28.7737 265.593 26.4079 264.595 24.6567 262.843C22.9055 261.092 21.9074 258.726 21.875 256.25C21.941 227.262 33.4856 199.481 53.9831 178.983C74.4806 158.486 102.262 146.941 131.25 146.875H156.25C158.736 146.875 161.121 147.863 162.879 149.621C164.637 151.379 165.625 153.764 165.625 156.25C165.625 158.736 164.637 161.121 162.879 162.879C161.121 164.637 158.736 165.625 156.25 165.625H131.25C107.225 165.658 84.1933 175.217 67.205 192.205C50.2167 209.193 40.6581 232.225 40.625 256.25C40.5926 258.726 39.5945 261.092 37.8433 262.843C36.0921 264.595 33.7263 265.593 31.25 265.625Z" fill="#091210"/>
<path d="M181.251 278.125C178.843 277.928 176.604 276.808 175.001 275L125.001 225C124.166 223.25 123.893 221.285 124.221 219.374C124.549 217.463 125.461 215.701 126.832 214.33C128.203 212.96 129.965 212.047 131.876 211.72C133.786 211.392 135.752 211.664 137.501 212.5L180.376 255.375L261.751 162.5C262.572 161.581 263.566 160.832 264.676 160.297C265.786 159.762 266.991 159.45 268.221 159.381C269.451 159.311 270.683 159.484 271.847 159.891C273.01 160.297 274.082 160.929 275.001 161.75C275.92 162.571 276.669 163.564 277.204 164.675C277.739 165.785 278.051 166.989 278.12 168.22C278.19 169.45 278.017 170.682 277.61 171.845C277.204 173.009 276.572 174.081 275.751 175L188.251 275C187.434 275.973 186.423 276.765 185.282 277.324C184.141 277.884 182.896 278.199 181.626 278.25L181.251 278.125Z" fill="#091210"/>
</svg>
