<svg width="250" height="250" viewBox="0 0 250 250" fill="none" xmlns="http://www.w3.org/2000/svg">
<path d="M124.997 104.167C145.133 104.167 161.456 87.8438 161.456 67.7083C161.456 47.573 145.133 31.25 124.997 31.25C104.862 31.25 88.5391 47.573 88.5391 67.7083C88.5391 87.8438 104.862 104.167 124.997 104.167Z" fill="#5BCFBA" stroke="black" stroke-width="16" stroke-linecap="round" stroke-linejoin="round"/>
<path d="M62.5 37.7856C53.0547 44.3739 46.875 55.3196 46.875 67.7092C46.875 80.9712 53.9562 92.5795 64.5438 98.9592" stroke="black" stroke-width="16" stroke-linecap="round" stroke-linejoin="round"/>
<path d="M187.5 37.7856C196.945 44.3739 203.125 55.3196 203.125 67.7092C203.125 80.0982 196.945 91.0446 187.5 97.6326" stroke="black" stroke-width="16" stroke-linecap="round" stroke-linejoin="round"/>
<path d="M62.5 208.333V218.75H187.5V208.333C187.5 188.919 187.5 179.212 184.328 171.555C180.099 161.345 171.988 153.234 161.779 149.005C154.121 145.833 144.414 145.833 125 145.833C105.586 145.833 95.8786 145.833 88.2214 149.005C78.012 153.234 69.9005 161.345 65.6719 171.555C62.5 179.212 62.5 188.919 62.5 208.333Z" fill="#5BCFBA" stroke="black" stroke-width="16" stroke-linecap="round" stroke-linejoin="round"/>
<path d="M229.165 218.75V212.5C229.165 189.165 229.165 177.497 224.623 168.584C220.629 160.744 214.254 154.37 206.414 150.375" stroke="black" stroke-width="16" stroke-linecap="round" stroke-linejoin="round"/>
<path d="M20.832 218.75V212.5C20.832 189.165 20.832 177.497 25.3734 168.584C29.3681 160.744 35.7423 154.37 43.5824 150.375" stroke="black" stroke-width="16" stroke-linecap="round" stroke-linejoin="round"/>
</svg>
